<svg xmlns="http://www.w3.org/2000/svg" version="1.0" width="50.000000pt" height="50.000000pt" viewBox="0 0 50.000000 50.000000" preserveAspectRatio="xMidYMid meet">

<g transform="translate(0.000000,50.000000) scale(0.100000,-0.100000)" fill="#FFB020" stroke="none">
<path d="M206 435 c-65 -19 -121 -36 -124 -39 -3 -3 63 -6 146 -6 l152 0 0 28 c0 31 -16 52 -39 51 -9 0 -69 -16 -135 -34z"/>
<path d="M60 350 c-18 -18 -20 -33 -20 -148 0 -112 2 -131 18 -145 16 -15 45 -17 194 -17 221 0 208 -10 208 163 0 175 10 167 -210 167 -157 0 -172 -2 -190 -20z m348 -143 c4 -20 -25 -34 -40 -19 -15 15 -1 44 19 40 10 -2 19 -11 21 -21z"/>
</g>
</svg>