<?xml version="1.0" encoding="UTF-8" standalone="no" ?>
<!DOCTYPE svg PUBLIC "-//W3C//DTD SVG 1.1//EN" "http://www.w3.org/Graphics/SVG/1.1/DTD/svg11.dtd">
<svg xmlns="http://www.w3.org/2000/svg" xmlns:xlink="http://www.w3.org/1999/xlink" version="1.1" width="1080" height="1080" viewBox="0 0 1080 1080" xml:space="preserve">
<desc>Created with Fabric.js 5.2.4</desc>
<defs>
</defs>
<g transform="matrix(1 0 0 1 540 540)" id="5cfcfa6f-2374-4de7-9156-3b9dbba43569"  >
<rect style="stroke: none; stroke-width: 1; stroke-dasharray: none; stroke-linecap: butt; stroke-dashoffset: 0; stroke-linejoin: miter; stroke-miterlimit: 4; fill: rgb(255,255,255); fill-rule: nonzero; opacity: 1; visibility: hidden;" vector-effect="non-scaling-stroke"  x="-540" y="-540" rx="0" ry="0" width="1080" height="1080" />
</g>
<g transform="matrix(1 0 0 1 540 540)" id="65c5f85e-ca9c-4750-acb3-67a51859755c"  >
</g>
<g transform="matrix(1 0 0 1 -35.37 50)"  >
<rect style="stroke: none; stroke-width: 1; stroke-dasharray: none; stroke-linecap: butt; stroke-dashoffset: 0; stroke-linejoin: miter; stroke-miterlimit: 4; fill: rgb(255,255,255); fill-opacity: 0; fill-rule: nonzero; opacity: 1;" vector-effect="non-scaling-stroke"  x="-50" y="-50" rx="0" ry="0" width="100" height="100" />
</g>
<g transform="matrix(1 0 0 1 454.63 540)"  >
<rect style="stroke: none; stroke-width: 1; stroke-dasharray: none; stroke-linecap: butt; stroke-dashoffset: 0; stroke-linejoin: miter; stroke-miterlimit: 4; fill: rgb(255,255,255); fill-rule: nonzero; opacity: 1; visibility: hidden;" vector-effect="non-scaling-stroke"  x="-540" y="-540" rx="0" ry="0" width="1080" height="1080" />
</g>
<g transform="matrix(3.2 0 0 3.2 -74.17 203.2)"  >
<circle style="stroke: none; stroke-width: 1; stroke-dasharray: none; stroke-linecap: butt; stroke-dashoffset: 0; stroke-linejoin: miter; stroke-miterlimit: 4; fill: rgb(255,255,255); fill-rule: nonzero; opacity: 0.08;" vector-effect="non-scaling-stroke"  cx="0" cy="0" r="3.5" />
</g>
<g transform="matrix(3.2 0 0 3.2 -74.17 299.2)"  >
<circle style="stroke: none; stroke-width: 1; stroke-dasharray: none; stroke-linecap: butt; stroke-dashoffset: 0; stroke-linejoin: miter; stroke-miterlimit: 4; fill: rgb(255,255,255); fill-rule: nonzero; opacity: 0.08;" vector-effect="non-scaling-stroke"  cx="0" cy="0" r="3.5" />
</g>
<g transform="matrix(3.2 0 0 3.2 -74.17 491.2)"  >
<circle style="stroke: none; stroke-width: 1; stroke-dasharray: none; stroke-linecap: butt; stroke-dashoffset: 0; stroke-linejoin: miter; stroke-miterlimit: 4; fill: rgb(255,255,255); fill-rule: nonzero; opacity: 0.08;" vector-effect="non-scaling-stroke"  cx="0" cy="0" r="3.5" />
</g>
<g transform="matrix(3.2 0 0 3.2 -74.17 587.2)"  >
<circle style="stroke: none; stroke-width: 1; stroke-dasharray: none; stroke-linecap: butt; stroke-dashoffset: 0; stroke-linejoin: miter; stroke-miterlimit: 4; fill: rgb(255,255,255); fill-rule: nonzero; opacity: 0.08;" vector-effect="non-scaling-stroke"  cx="0" cy="0" r="3.5" />
</g>
<g transform="matrix(3.2 0 0 3.2 -74.17 683.2)"  >
<circle style="stroke: none; stroke-width: 1; stroke-dasharray: none; stroke-linecap: butt; stroke-dashoffset: 0; stroke-linejoin: miter; stroke-miterlimit: 4; fill: rgb(255,255,255); fill-rule: nonzero; opacity: 0.08;" vector-effect="non-scaling-stroke"  cx="0" cy="0" r="3.5" />
</g>
<g transform="matrix(3.2 0 0 3.2 -74.17 779.2)"  >
<circle style="stroke: none; stroke-width: 1; stroke-dasharray: none; stroke-linecap: butt; stroke-dashoffset: 0; stroke-linejoin: miter; stroke-miterlimit: 4; fill: rgb(255,255,255); fill-rule: nonzero; opacity: 0.02;" vector-effect="non-scaling-stroke"  cx="0" cy="0" r="3.5" />
</g>
<g transform="matrix(3.2 0 0 3.2 -74.17 875.2)"  >
<circle style="stroke: none; stroke-width: 1; stroke-dasharray: none; stroke-linecap: butt; stroke-dashoffset: 0; stroke-linejoin: miter; stroke-miterlimit: 4; fill: rgb(255,255,255); fill-rule: nonzero; opacity: 0.08;" vector-effect="non-scaling-stroke"  cx="0" cy="0" r="3.5" />
</g>
<g transform="matrix(3.2 0 0 3.2 -74.17 1067.2)"  >
<circle style="stroke: none; stroke-width: 1; stroke-dasharray: none; stroke-linecap: butt; stroke-dashoffset: 0; stroke-linejoin: miter; stroke-miterlimit: 4; fill: rgb(255,255,255); fill-rule: nonzero; opacity: 0.18;" vector-effect="non-scaling-stroke"  cx="0" cy="0" r="3.5" />
</g>
<g transform="matrix(3.2 0 0 3.2 21.83 203.2)"  >
<circle style="stroke: none; stroke-width: 1; stroke-dasharray: none; stroke-linecap: butt; stroke-dashoffset: 0; stroke-linejoin: miter; stroke-miterlimit: 4; fill: rgb(255,255,255); fill-rule: nonzero; opacity: 0.08;" vector-effect="non-scaling-stroke"  cx="0" cy="0" r="3.5" />
</g>
<g transform="matrix(3.2 0 0 3.2 21.83 299.2)"  >
<circle style="stroke: none; stroke-width: 1; stroke-dasharray: none; stroke-linecap: butt; stroke-dashoffset: 0; stroke-linejoin: miter; stroke-miterlimit: 4; fill: rgb(255,255,255); fill-rule: nonzero; opacity: 0.08;" vector-effect="non-scaling-stroke"  cx="0" cy="0" r="3.5" />
</g>
<g transform="matrix(3.2 0 0 3.2 21.83 395.2)"  >
<circle style="stroke: none; stroke-width: 1; stroke-dasharray: none; stroke-linecap: butt; stroke-dashoffset: 0; stroke-linejoin: miter; stroke-miterlimit: 4; fill: rgb(255,255,255); fill-rule: nonzero; opacity: 0.08;" vector-effect="non-scaling-stroke"  cx="0" cy="0" r="3.5" />
</g>
<g transform="matrix(3.2 0 0 3.2 21.83 491.2)"  >
<circle style="stroke: none; stroke-width: 1; stroke-dasharray: none; stroke-linecap: butt; stroke-dashoffset: 0; stroke-linejoin: miter; stroke-miterlimit: 4; fill: rgb(255,255,255); fill-rule: nonzero; opacity: 0.08;" vector-effect="non-scaling-stroke"  cx="0" cy="0" r="3.5" />
</g>
<g transform="matrix(3.2 0 0 3.2 21.83 587.2)"  >
<circle style="stroke: none; stroke-width: 1; stroke-dasharray: none; stroke-linecap: butt; stroke-dashoffset: 0; stroke-linejoin: miter; stroke-miterlimit: 4; fill: rgb(255,255,255); fill-rule: nonzero; opacity: 0.08;" vector-effect="non-scaling-stroke"  cx="0" cy="0" r="3.5" />
</g>
<g transform="matrix(3.2 0 0 3.2 21.83 683.2)"  >
<circle style="stroke: none; stroke-width: 1; stroke-dasharray: none; stroke-linecap: butt; stroke-dashoffset: 0; stroke-linejoin: miter; stroke-miterlimit: 4; fill: rgb(255,255,255); fill-rule: nonzero; opacity: 0.08;" vector-effect="non-scaling-stroke"  cx="0" cy="0" r="3.5" />
</g>
<g transform="matrix(3.2 0 0 3.2 21.83 779.2)"  >
<circle style="stroke: none; stroke-width: 1; stroke-dasharray: none; stroke-linecap: butt; stroke-dashoffset: 0; stroke-linejoin: miter; stroke-miterlimit: 4; fill: rgb(255,255,255); fill-rule: nonzero; opacity: 0.02;" vector-effect="non-scaling-stroke"  cx="0" cy="0" r="3.5" />
</g>
<g transform="matrix(3.2 0 0 3.2 21.83 875.2)"  >
<circle style="stroke: none; stroke-width: 1; stroke-dasharray: none; stroke-linecap: butt; stroke-dashoffset: 0; stroke-linejoin: miter; stroke-miterlimit: 4; fill: rgb(255,255,255); fill-rule: nonzero; opacity: 0.08;" vector-effect="non-scaling-stroke"  cx="0" cy="0" r="3.5" />
</g>
<g transform="matrix(3.2 0 0 3.2 21.83 971.2)"  >
<circle style="stroke: none; stroke-width: 1; stroke-dasharray: none; stroke-linecap: butt; stroke-dashoffset: 0; stroke-linejoin: miter; stroke-miterlimit: 4; fill: rgb(255,255,255); fill-rule: nonzero; opacity: 0.18;" vector-effect="non-scaling-stroke"  cx="0" cy="0" r="3.5" />
</g>
<g transform="matrix(3.2 0 0 3.2 117.83 11.2)"  >
<circle style="stroke: none; stroke-width: 1; stroke-dasharray: none; stroke-linecap: butt; stroke-dashoffset: 0; stroke-linejoin: miter; stroke-miterlimit: 4; fill: rgb(255,255,255); fill-rule: nonzero; opacity: 0.08;" vector-effect="non-scaling-stroke"  cx="0" cy="0" r="3.5" />
</g>
<g transform="matrix(3.2 0 0 3.2 117.83 107.2)"  >
<circle style="stroke: none; stroke-width: 1; stroke-dasharray: none; stroke-linecap: butt; stroke-dashoffset: 0; stroke-linejoin: miter; stroke-miterlimit: 4; fill: rgb(255,255,255); fill-rule: nonzero; opacity: 0.08;" vector-effect="non-scaling-stroke"  cx="0" cy="0" r="3.5" />
</g>
<g transform="matrix(3.2 0 0 3.2 117.83 203.2)"  >
<circle style="stroke: none; stroke-width: 1; stroke-dasharray: none; stroke-linecap: butt; stroke-dashoffset: 0; stroke-linejoin: miter; stroke-miterlimit: 4; fill: rgb(255,255,255); fill-rule: nonzero; opacity: 0.08;" vector-effect="non-scaling-stroke"  cx="0" cy="0" r="3.5" />
</g>
<g transform="matrix(3.2 0 0 3.2 117.83 299.2)"  >
<circle style="stroke: none; stroke-width: 1; stroke-dasharray: none; stroke-linecap: butt; stroke-dashoffset: 0; stroke-linejoin: miter; stroke-miterlimit: 4; fill: rgb(255,255,255); fill-rule: nonzero; opacity: 0.08;" vector-effect="non-scaling-stroke"  cx="0" cy="0" r="3.5" />
</g>
<g transform="matrix(3.2 0 0 3.2 117.83 395.2)"  >
<circle style="stroke: none; stroke-width: 1; stroke-dasharray: none; stroke-linecap: butt; stroke-dashoffset: 0; stroke-linejoin: miter; stroke-miterlimit: 4; fill: rgb(255,255,255); fill-rule: nonzero; opacity: 0.08;" vector-effect="non-scaling-stroke"  cx="0" cy="0" r="3.5" />
</g>
<g transform="matrix(3.2 0 0 3.2 117.83 491.2)"  >
<circle style="stroke: none; stroke-width: 1; stroke-dasharray: none; stroke-linecap: butt; stroke-dashoffset: 0; stroke-linejoin: miter; stroke-miterlimit: 4; fill: rgb(255,255,255); fill-rule: nonzero; opacity: 0.08;" vector-effect="non-scaling-stroke"  cx="0" cy="0" r="3.5" />
</g>
<g transform="matrix(3.2 0 0 3.2 117.83 587.2)"  >
<circle style="stroke: none; stroke-width: 1; stroke-dasharray: none; stroke-linecap: butt; stroke-dashoffset: 0; stroke-linejoin: miter; stroke-miterlimit: 4; fill: rgb(255,255,255); fill-rule: nonzero; opacity: 0.08;" vector-effect="non-scaling-stroke"  cx="0" cy="0" r="3.5" />
</g>
<g transform="matrix(3.2 0 0 3.2 117.83 683.2)"  >
<circle style="stroke: none; stroke-width: 1; stroke-dasharray: none; stroke-linecap: butt; stroke-dashoffset: 0; stroke-linejoin: miter; stroke-miterlimit: 4; fill: rgb(255,255,255); fill-rule: nonzero; opacity: 0.08;" vector-effect="non-scaling-stroke"  cx="0" cy="0" r="3.5" />
</g>
<g transform="matrix(3.2 0 0 3.2 117.83 779.2)"  >
<circle style="stroke: none; stroke-width: 1; stroke-dasharray: none; stroke-linecap: butt; stroke-dashoffset: 0; stroke-linejoin: miter; stroke-miterlimit: 4; fill: rgb(255,255,255); fill-rule: nonzero; opacity: 0.02;" vector-effect="non-scaling-stroke"  cx="0" cy="0" r="3.5" />
</g>
<g transform="matrix(3.2 0 0 3.2 117.83 875.2)"  >
<circle style="stroke: none; stroke-width: 1; stroke-dasharray: none; stroke-linecap: butt; stroke-dashoffset: 0; stroke-linejoin: miter; stroke-miterlimit: 4; fill: rgb(255,255,255); fill-rule: nonzero; opacity: 0.08;" vector-effect="non-scaling-stroke"  cx="0" cy="0" r="3.5" />
</g>
<g transform="matrix(3.2 0 0 3.2 117.83 971.2)"  >
<circle style="stroke: none; stroke-width: 1; stroke-dasharray: none; stroke-linecap: butt; stroke-dashoffset: 0; stroke-linejoin: miter; stroke-miterlimit: 4; fill: rgb(255,255,255); fill-rule: nonzero; opacity: 0.1;" vector-effect="non-scaling-stroke"  cx="0" cy="0" r="3.5" />
</g>
<g transform="matrix(3.2 0 0 3.2 117.83 1067.2)"  >
<circle style="stroke: none; stroke-width: 1; stroke-dasharray: none; stroke-linecap: butt; stroke-dashoffset: 0; stroke-linejoin: miter; stroke-miterlimit: 4; fill: rgb(255,255,255); fill-rule: nonzero; opacity: 0.1;" vector-effect="non-scaling-stroke"  cx="0" cy="0" r="3.5" />
</g>
<g transform="matrix(3.2 0 0 3.2 213.83 11.2)"  >
<circle style="stroke: none; stroke-width: 1; stroke-dasharray: none; stroke-linecap: butt; stroke-dashoffset: 0; stroke-linejoin: miter; stroke-miterlimit: 4; fill: rgb(255,255,255); fill-rule: nonzero; opacity: 0.08;" vector-effect="non-scaling-stroke"  cx="0" cy="0" r="3.5" />
</g>
<g transform="matrix(3.2 0 0 3.2 213.83 107.2)"  >
<circle style="stroke: none; stroke-width: 1; stroke-dasharray: none; stroke-linecap: butt; stroke-dashoffset: 0; stroke-linejoin: miter; stroke-miterlimit: 4; fill: rgb(255,255,255); fill-rule: nonzero; opacity: 0.08;" vector-effect="non-scaling-stroke"  cx="0" cy="0" r="3.5" />
</g>
<g transform="matrix(3.2 0 0 3.2 213.83 299.2)"  >
<circle style="stroke: none; stroke-width: 1; stroke-dasharray: none; stroke-linecap: butt; stroke-dashoffset: 0; stroke-linejoin: miter; stroke-miterlimit: 4; fill: rgb(255,255,255); fill-rule: nonzero; opacity: 0.08;" vector-effect="non-scaling-stroke"  cx="0" cy="0" r="3.5" />
</g>
<g transform="matrix(3.2 0 0 3.2 213.83 395.2)"  >
<circle style="stroke: none; stroke-width: 1; stroke-dasharray: none; stroke-linecap: butt; stroke-dashoffset: 0; stroke-linejoin: miter; stroke-miterlimit: 4; fill: rgb(255,255,255); fill-rule: nonzero; opacity: 0.08;" vector-effect="non-scaling-stroke"  cx="0" cy="0" r="3.5" />
</g>
<g transform="matrix(3.2 0 0 3.2 213.83 491.2)"  >
<circle style="stroke: none; stroke-width: 1; stroke-dasharray: none; stroke-linecap: butt; stroke-dashoffset: 0; stroke-linejoin: miter; stroke-miterlimit: 4; fill: rgb(255,255,255); fill-rule: nonzero; opacity: 0.02;" vector-effect="non-scaling-stroke"  cx="0" cy="0" r="3.5" />
</g>
<g transform="matrix(3.2 0 0 3.2 213.83 587.2)"  >
<circle style="stroke: none; stroke-width: 1; stroke-dasharray: none; stroke-linecap: butt; stroke-dashoffset: 0; stroke-linejoin: miter; stroke-miterlimit: 4; fill: rgb(255,255,255); fill-rule: nonzero; opacity: 0.02;" vector-effect="non-scaling-stroke"  cx="0" cy="0" r="3.5" />
</g>
<g transform="matrix(3.2 0 0 3.2 213.83 683.2)"  >
<circle style="stroke: none; stroke-width: 1; stroke-dasharray: none; stroke-linecap: butt; stroke-dashoffset: 0; stroke-linejoin: miter; stroke-miterlimit: 4; fill: rgb(255,255,255); fill-rule: nonzero; opacity: 0.02;" vector-effect="non-scaling-stroke"  cx="0" cy="0" r="3.5" />
</g>
<g transform="matrix(3.2 0 0 3.2 213.83 779.2)"  >
<circle style="stroke: none; stroke-width: 1; stroke-dasharray: none; stroke-linecap: butt; stroke-dashoffset: 0; stroke-linejoin: miter; stroke-miterlimit: 4; fill: rgb(255,255,255); fill-rule: nonzero; opacity: 0.02;" vector-effect="non-scaling-stroke"  cx="0" cy="0" r="3.5" />
</g>
<g transform="matrix(3.2 0 0 3.2 213.83 875.2)"  >
<circle style="stroke: none; stroke-width: 1; stroke-dasharray: none; stroke-linecap: butt; stroke-dashoffset: 0; stroke-linejoin: miter; stroke-miterlimit: 4; fill: rgb(255,255,255); fill-rule: nonzero; opacity: 0.08;" vector-effect="non-scaling-stroke"  cx="0" cy="0" r="3.5" />
</g>
<g transform="matrix(3.2 0 0 3.2 213.83 971.2)"  >
<circle style="stroke: none; stroke-width: 1; stroke-dasharray: none; stroke-linecap: butt; stroke-dashoffset: 0; stroke-linejoin: miter; stroke-miterlimit: 4; fill: rgb(255,255,255); fill-rule: nonzero; opacity: 0.1;" vector-effect="non-scaling-stroke"  cx="0" cy="0" r="3.5" />
</g>
<g transform="matrix(3.2 0 0 3.2 213.83 1067.2)"  >
<circle style="stroke: none; stroke-width: 1; stroke-dasharray: none; stroke-linecap: butt; stroke-dashoffset: 0; stroke-linejoin: miter; stroke-miterlimit: 4; fill: rgb(255,255,255); fill-rule: nonzero; opacity: 0.1;" vector-effect="non-scaling-stroke"  cx="0" cy="0" r="3.5" />
</g>
<g transform="matrix(3.2 0 0 3.2 309.83 11.2)"  >
<circle style="stroke: none; stroke-width: 1; stroke-dasharray: none; stroke-linecap: butt; stroke-dashoffset: 0; stroke-linejoin: miter; stroke-miterlimit: 4; fill: rgb(255,255,255); fill-rule: nonzero; opacity: 0.08;" vector-effect="non-scaling-stroke"  cx="0" cy="0" r="3.5" />
</g>
<g transform="matrix(3.2 0 0 3.2 309.83 107.2)"  >
<circle style="stroke: none; stroke-width: 1; stroke-dasharray: none; stroke-linecap: butt; stroke-dashoffset: 0; stroke-linejoin: miter; stroke-miterlimit: 4; fill: rgb(255,255,255); fill-rule: nonzero; opacity: 0.08;" vector-effect="non-scaling-stroke"  cx="0" cy="0" r="3.5" />
</g>
<g transform="matrix(3.2 0 0 3.2 309.83 203.2)"  >
<circle style="stroke: none; stroke-width: 1; stroke-dasharray: none; stroke-linecap: butt; stroke-dashoffset: 0; stroke-linejoin: miter; stroke-miterlimit: 4; fill: rgb(255,255,255); fill-rule: nonzero; opacity: 0.08;" vector-effect="non-scaling-stroke"  cx="0" cy="0" r="3.5" />
</g>
<g transform="matrix(3.2 0 0 3.2 309.83 299.2)"  >
<circle style="stroke: none; stroke-width: 1; stroke-dasharray: none; stroke-linecap: butt; stroke-dashoffset: 0; stroke-linejoin: miter; stroke-miterlimit: 4; fill: rgb(255,255,255); fill-rule: nonzero; opacity: 0.08;" vector-effect="non-scaling-stroke"  cx="0" cy="0" r="3.5" />
</g>
<g transform="matrix(3.2 0 0 3.2 309.83 395.2)"  >
<circle style="stroke: none; stroke-width: 1; stroke-dasharray: none; stroke-linecap: butt; stroke-dashoffset: 0; stroke-linejoin: miter; stroke-miterlimit: 4; fill: rgb(255,255,255); fill-rule: nonzero; opacity: 0.04;" vector-effect="non-scaling-stroke"  cx="0" cy="0" r="3.5" />
</g>
<g transform="matrix(3.2 0 0 3.2 309.83 491.2)"  >
<circle style="stroke: none; stroke-width: 1; stroke-dasharray: none; stroke-linecap: butt; stroke-dashoffset: 0; stroke-linejoin: miter; stroke-miterlimit: 4; fill: rgb(255,255,255); fill-rule: nonzero; opacity: 0.04;" vector-effect="non-scaling-stroke"  cx="0" cy="0" r="3.5" />
</g>
<g transform="matrix(3.2 0 0 3.2 309.83 683.2)"  >
<circle style="stroke: none; stroke-width: 1; stroke-dasharray: none; stroke-linecap: butt; stroke-dashoffset: 0; stroke-linejoin: miter; stroke-miterlimit: 4; fill: rgb(255,255,255); fill-rule: nonzero; opacity: 0.04;" vector-effect="non-scaling-stroke"  cx="0" cy="0" r="3.5" />
</g>
<g transform="matrix(3.2 0 0 3.2 309.83 779.2)"  >
<circle style="stroke: none; stroke-width: 1; stroke-dasharray: none; stroke-linecap: butt; stroke-dashoffset: 0; stroke-linejoin: miter; stroke-miterlimit: 4; fill: rgb(255,255,255); fill-rule: nonzero; opacity: 0.04;" vector-effect="non-scaling-stroke"  cx="0" cy="0" r="3.5" />
</g>
<g transform="matrix(3.2 0 0 3.2 309.83 875.2)"  >
<circle style="stroke: none; stroke-width: 1; stroke-dasharray: none; stroke-linecap: butt; stroke-dashoffset: 0; stroke-linejoin: miter; stroke-miterlimit: 4; fill: rgb(255,255,255); fill-rule: nonzero; opacity: 0.04;" vector-effect="non-scaling-stroke"  cx="0" cy="0" r="3.5" />
</g>
<g transform="matrix(3.2 0 0 3.2 309.83 971.2)"  >
<circle style="stroke: none; stroke-width: 1; stroke-dasharray: none; stroke-linecap: butt; stroke-dashoffset: 0; stroke-linejoin: miter; stroke-miterlimit: 4; fill: rgb(255,255,255); fill-rule: nonzero; opacity: 0.08;" vector-effect="non-scaling-stroke"  cx="0" cy="0" r="3.5" />
</g>
<g transform="matrix(3.2 0 0 3.2 405.83 107.2)"  >
<circle style="stroke: none; stroke-width: 1; stroke-dasharray: none; stroke-linecap: butt; stroke-dashoffset: 0; stroke-linejoin: miter; stroke-miterlimit: 4; fill: rgb(255,255,255); fill-rule: nonzero; opacity: 0.08;" vector-effect="non-scaling-stroke"  cx="0" cy="0" r="3.5" />
</g>
<g transform="matrix(3.2 0 0 3.2 405.83 203.2)"  >
<circle style="stroke: none; stroke-width: 1; stroke-dasharray: none; stroke-linecap: butt; stroke-dashoffset: 0; stroke-linejoin: miter; stroke-miterlimit: 4; fill: rgb(255,255,255); fill-rule: nonzero; opacity: 0.08;" vector-effect="non-scaling-stroke"  cx="0" cy="0" r="3.5" />
</g>
<g transform="matrix(3.2 0 0 3.2 405.83 299.2)"  >
<circle style="stroke: none; stroke-width: 1; stroke-dasharray: none; stroke-linecap: butt; stroke-dashoffset: 0; stroke-linejoin: miter; stroke-miterlimit: 4; fill: rgb(255,255,255); fill-rule: nonzero; opacity: 0.08;" vector-effect="non-scaling-stroke"  cx="0" cy="0" r="3.5" />
</g>
<g transform="matrix(3.2 0 0 3.2 405.83 395.2)"  >
<circle style="stroke: none; stroke-width: 1; stroke-dasharray: none; stroke-linecap: butt; stroke-dashoffset: 0; stroke-linejoin: miter; stroke-miterlimit: 4; fill: rgb(255,255,255); fill-rule: nonzero; opacity: 0.04;" vector-effect="non-scaling-stroke"  cx="0" cy="0" r="3.5" />
</g>
<g transform="matrix(3.2 0 0 3.2 405.83 491.2)"  >
<circle style="stroke: none; stroke-width: 1; stroke-dasharray: none; stroke-linecap: butt; stroke-dashoffset: 0; stroke-linejoin: miter; stroke-miterlimit: 4; fill: rgb(255,255,255); fill-rule: nonzero; opacity: 0.04;" vector-effect="non-scaling-stroke"  cx="0" cy="0" r="3.5" />
</g>
<g transform="matrix(3.2 0 0 3.2 405.83 683.2)"  >
<circle style="stroke: none; stroke-width: 1; stroke-dasharray: none; stroke-linecap: butt; stroke-dashoffset: 0; stroke-linejoin: miter; stroke-miterlimit: 4; fill: rgb(255,255,255); fill-rule: nonzero; opacity: 0.04;" vector-effect="non-scaling-stroke"  cx="0" cy="0" r="3.5" />
</g>
<g transform="matrix(3.2 0 0 3.2 405.83 779.2)"  >
<circle style="stroke: none; stroke-width: 1; stroke-dasharray: none; stroke-linecap: butt; stroke-dashoffset: 0; stroke-linejoin: miter; stroke-miterlimit: 4; fill: rgb(255,255,255); fill-rule: nonzero; opacity: 0.04;" vector-effect="non-scaling-stroke"  cx="0" cy="0" r="3.5" />
</g>
<g transform="matrix(3.2 0 0 3.2 405.83 875.2)"  >
<circle style="stroke: none; stroke-width: 1; stroke-dasharray: none; stroke-linecap: butt; stroke-dashoffset: 0; stroke-linejoin: miter; stroke-miterlimit: 4; fill: rgb(255,255,255); fill-rule: nonzero; opacity: 0.04;" vector-effect="non-scaling-stroke"  cx="0" cy="0" r="3.5" />
</g>
<g transform="matrix(3.2 0 0 3.2 405.83 971.2)"  >
<circle style="stroke: none; stroke-width: 1; stroke-dasharray: none; stroke-linecap: butt; stroke-dashoffset: 0; stroke-linejoin: miter; stroke-miterlimit: 4; fill: rgb(255,255,255); fill-rule: nonzero; opacity: 0.08;" vector-effect="non-scaling-stroke"  cx="0" cy="0" r="3.5" />
</g>
<g transform="matrix(3.2 0 0 3.2 405.83 1067.2)"  >
<circle style="stroke: none; stroke-width: 1; stroke-dasharray: none; stroke-linecap: butt; stroke-dashoffset: 0; stroke-linejoin: miter; stroke-miterlimit: 4; fill: rgb(255,255,255); fill-rule: nonzero; opacity: 0.08;" vector-effect="non-scaling-stroke"  cx="0" cy="0" r="3.5" />
</g>
<g transform="matrix(3.2 0 0 3.2 501.83 11.2)"  >
<circle style="stroke: none; stroke-width: 1; stroke-dasharray: none; stroke-linecap: butt; stroke-dashoffset: 0; stroke-linejoin: miter; stroke-miterlimit: 4; fill: rgb(255,255,255); fill-rule: nonzero; opacity: 0.04;" vector-effect="non-scaling-stroke"  cx="0" cy="0" r="3.5" />
</g>
<g transform="matrix(3.2 0 0 3.2 501.83 107.2)"  >
<circle style="stroke: none; stroke-width: 1; stroke-dasharray: none; stroke-linecap: butt; stroke-dashoffset: 0; stroke-linejoin: miter; stroke-miterlimit: 4; fill: rgb(255,255,255); fill-rule: nonzero; opacity: 0.04;" vector-effect="non-scaling-stroke"  cx="0" cy="0" r="3.5" />
</g>
<g transform="matrix(3.2 0 0 3.2 501.83 203.2)"  >
<circle style="stroke: none; stroke-width: 1; stroke-dasharray: none; stroke-linecap: butt; stroke-dashoffset: 0; stroke-linejoin: miter; stroke-miterlimit: 4; fill: rgb(255,255,255); fill-rule: nonzero; opacity: 0.04;" vector-effect="non-scaling-stroke"  cx="0" cy="0" r="3.5" />
</g>
<g transform="matrix(3.2 0 0 3.2 501.83 299.2)"  >
<circle style="stroke: none; stroke-width: 1; stroke-dasharray: none; stroke-linecap: butt; stroke-dashoffset: 0; stroke-linejoin: miter; stroke-miterlimit: 4; fill: rgb(255,255,255); fill-rule: nonzero; opacity: 0.04;" vector-effect="non-scaling-stroke"  cx="0" cy="0" r="3.5" />
</g>
<g transform="matrix(3.2 0 0 3.2 501.83 395.2)"  >
<circle style="stroke: none; stroke-width: 1; stroke-dasharray: none; stroke-linecap: butt; stroke-dashoffset: 0; stroke-linejoin: miter; stroke-miterlimit: 4; fill: rgb(255,255,255); fill-rule: nonzero; opacity: 0.04;" vector-effect="non-scaling-stroke"  cx="0" cy="0" r="3.5" />
</g>
<g transform="matrix(3.2 0 0 3.2 501.83 491.2)"  >
<circle style="stroke: none; stroke-width: 1; stroke-dasharray: none; stroke-linecap: butt; stroke-dashoffset: 0; stroke-linejoin: miter; stroke-miterlimit: 4; fill: rgb(255,255,255); fill-rule: nonzero; opacity: 0.04;" vector-effect="non-scaling-stroke"  cx="0" cy="0" r="3.5" />
</g>
<g transform="matrix(3.2 0 0 3.2 501.83 683.2)"  >
<circle style="stroke: none; stroke-width: 1; stroke-dasharray: none; stroke-linecap: butt; stroke-dashoffset: 0; stroke-linejoin: miter; stroke-miterlimit: 4; fill: rgb(255,255,255); fill-rule: nonzero; opacity: 0.04;" vector-effect="non-scaling-stroke"  cx="0" cy="0" r="3.5" />
</g>
<g transform="matrix(3.2 0 0 3.2 501.83 779.2)"  >
<circle style="stroke: none; stroke-width: 1; stroke-dasharray: none; stroke-linecap: butt; stroke-dashoffset: 0; stroke-linejoin: miter; stroke-miterlimit: 4; fill: rgb(255,255,255); fill-rule: nonzero; opacity: 0.04;" vector-effect="non-scaling-stroke"  cx="0" cy="0" r="3.5" />
</g>
<g transform="matrix(3.2 0 0 3.2 501.83 875.2)"  >
<circle style="stroke: none; stroke-width: 1; stroke-dasharray: none; stroke-linecap: butt; stroke-dashoffset: 0; stroke-linejoin: miter; stroke-miterlimit: 4; fill: rgb(255,255,255); fill-rule: nonzero; opacity: 0.04;" vector-effect="non-scaling-stroke"  cx="0" cy="0" r="3.5" />
</g>
<g transform="matrix(3.2 0 0 3.2 501.83 1067.2)"  >
<circle style="stroke: none; stroke-width: 1; stroke-dasharray: none; stroke-linecap: butt; stroke-dashoffset: 0; stroke-linejoin: miter; stroke-miterlimit: 4; fill: rgb(255,255,255); fill-rule: nonzero; opacity: 0.08;" vector-effect="non-scaling-stroke"  cx="0" cy="0" r="3.5" />
</g>
<g transform="matrix(3.2 0 0 3.2 597.83 11.2)"  >
<circle style="stroke: none; stroke-width: 1; stroke-dasharray: none; stroke-linecap: butt; stroke-dashoffset: 0; stroke-linejoin: miter; stroke-miterlimit: 4; fill: rgb(255,255,255); fill-rule: nonzero; opacity: 0.04;" vector-effect="non-scaling-stroke"  cx="0" cy="0" r="3.5" />
</g>
<g transform="matrix(3.2 0 0 3.2 597.83 107.2)"  >
<circle style="stroke: none; stroke-width: 1; stroke-dasharray: none; stroke-linecap: butt; stroke-dashoffset: 0; stroke-linejoin: miter; stroke-miterlimit: 4; fill: rgb(255,255,255); fill-rule: nonzero; opacity: 0.04;" vector-effect="non-scaling-stroke"  cx="0" cy="0" r="3.5" />
</g>
<g transform="matrix(3.2 0 0 3.2 597.83 203.2)"  >
<circle style="stroke: none; stroke-width: 1; stroke-dasharray: none; stroke-linecap: butt; stroke-dashoffset: 0; stroke-linejoin: miter; stroke-miterlimit: 4; fill: rgb(255,255,255); fill-rule: nonzero; opacity: 0.04;" vector-effect="non-scaling-stroke"  cx="0" cy="0" r="3.5" />
</g>
<g transform="matrix(3.2 0 0 3.2 597.83 299.2)"  >
<circle style="stroke: none; stroke-width: 1; stroke-dasharray: none; stroke-linecap: butt; stroke-dashoffset: 0; stroke-linejoin: miter; stroke-miterlimit: 4; fill: rgb(255,255,255); fill-rule: nonzero; opacity: 0.04;" vector-effect="non-scaling-stroke"  cx="0" cy="0" r="3.5" />
</g>
<g transform="matrix(3.2 0 0 3.2 597.83 395.2)"  >
<circle style="stroke: none; stroke-width: 1; stroke-dasharray: none; stroke-linecap: butt; stroke-dashoffset: 0; stroke-linejoin: miter; stroke-miterlimit: 4; fill: rgb(255,255,255); fill-rule: nonzero; opacity: 0.04;" vector-effect="non-scaling-stroke"  cx="0" cy="0" r="3.5" />
</g>
<g transform="matrix(3.2 0 0 3.2 597.83 491.2)"  >
<circle style="stroke: none; stroke-width: 1; stroke-dasharray: none; stroke-linecap: butt; stroke-dashoffset: 0; stroke-linejoin: miter; stroke-miterlimit: 4; fill: rgb(255,255,255); fill-rule: nonzero; opacity: 0.04;" vector-effect="non-scaling-stroke"  cx="0" cy="0" r="3.5" />
</g>
<g transform="matrix(3.2 0 0 3.2 597.83 683.2)"  >
<circle style="stroke: none; stroke-width: 1; stroke-dasharray: none; stroke-linecap: butt; stroke-dashoffset: 0; stroke-linejoin: miter; stroke-miterlimit: 4; fill: rgb(255,255,255); fill-rule: nonzero; opacity: 0.04;" vector-effect="non-scaling-stroke"  cx="0" cy="0" r="3.5" />
</g>
<g transform="matrix(3.2 0 0 3.2 597.83 779.2)"  >
<circle style="stroke: none; stroke-width: 1; stroke-dasharray: none; stroke-linecap: butt; stroke-dashoffset: 0; stroke-linejoin: miter; stroke-miterlimit: 4; fill: rgb(255,255,255); fill-rule: nonzero; opacity: 0.04;" vector-effect="non-scaling-stroke"  cx="0" cy="0" r="3.5" />
</g>
<g transform="matrix(3.2 0 0 3.2 597.83 875.2)"  >
<circle style="stroke: none; stroke-width: 1; stroke-dasharray: none; stroke-linecap: butt; stroke-dashoffset: 0; stroke-linejoin: miter; stroke-miterlimit: 4; fill: rgb(255,255,255); fill-rule: nonzero; opacity: 0.04;" vector-effect="non-scaling-stroke"  cx="0" cy="0" r="3.5" />
</g>
<g transform="matrix(3.2 0 0 3.2 597.83 971.2)"  >
<circle style="stroke: none; stroke-width: 1; stroke-dasharray: none; stroke-linecap: butt; stroke-dashoffset: 0; stroke-linejoin: miter; stroke-miterlimit: 4; fill: rgb(255,255,255); fill-rule: nonzero; opacity: 0.16;" vector-effect="non-scaling-stroke"  cx="0" cy="0" r="3.5" />
</g>
<g transform="matrix(3.2 0 0 3.2 693.83 11.2)"  >
<circle style="stroke: none; stroke-width: 1; stroke-dasharray: none; stroke-linecap: butt; stroke-dashoffset: 0; stroke-linejoin: miter; stroke-miterlimit: 4; fill: rgb(255,255,255); fill-rule: nonzero; opacity: 0.04;" vector-effect="non-scaling-stroke"  cx="0" cy="0" r="3.5" />
</g>
<g transform="matrix(3.2 0 0 3.2 1199.69 250.73)"  >
<circle style="stroke: none; stroke-width: 1; stroke-dasharray: none; stroke-linecap: butt; stroke-dashoffset: 0; stroke-linejoin: miter; stroke-miterlimit: 4; fill: rgb(255,255,255); fill-rule: nonzero; opacity: 0.04;" vector-effect="non-scaling-stroke"  cx="0" cy="0" r="3.5" />
</g>
<g transform="matrix(3.2 0 0 3.2 693.83 203.2)"  >
<circle style="stroke: none; stroke-width: 1; stroke-dasharray: none; stroke-linecap: butt; stroke-dashoffset: 0; stroke-linejoin: miter; stroke-miterlimit: 4; fill: rgb(255,255,255); fill-rule: nonzero; opacity: 0.04;" vector-effect="non-scaling-stroke"  cx="0" cy="0" r="3.5" />
</g>
<g transform="matrix(3.2 0 0 3.2 693.83 299.2)"  >
<circle style="stroke: none; stroke-width: 1; stroke-dasharray: none; stroke-linecap: butt; stroke-dashoffset: 0; stroke-linejoin: miter; stroke-miterlimit: 4; fill: rgb(255,255,255); fill-rule: nonzero; opacity: 0.04;" vector-effect="non-scaling-stroke"  cx="0" cy="0" r="3.5" />
</g>
<g transform="matrix(3.2 0 0 3.2 693.83 395.2)"  >
<circle style="stroke: none; stroke-width: 1; stroke-dasharray: none; stroke-linecap: butt; stroke-dashoffset: 0; stroke-linejoin: miter; stroke-miterlimit: 4; fill: rgb(255,255,255); fill-rule: nonzero; opacity: 0.04;" vector-effect="non-scaling-stroke"  cx="0" cy="0" r="3.5" />
</g>
<g transform="matrix(3.2 0 0 3.2 693.83 491.2)"  >
<circle style="stroke: none; stroke-width: 1; stroke-dasharray: none; stroke-linecap: butt; stroke-dashoffset: 0; stroke-linejoin: miter; stroke-miterlimit: 4; fill: rgb(255,255,255); fill-rule: nonzero; opacity: 0.04;" vector-effect="non-scaling-stroke"  cx="0" cy="0" r="3.5" />
</g>
<g transform="matrix(3.2 0 0 3.2 693.83 683.2)"  >
<circle style="stroke: none; stroke-width: 1; stroke-dasharray: none; stroke-linecap: butt; stroke-dashoffset: 0; stroke-linejoin: miter; stroke-miterlimit: 4; fill: rgb(255,255,255); fill-rule: nonzero; opacity: 0.04;" vector-effect="non-scaling-stroke"  cx="0" cy="0" r="3.5" />
</g>
<g transform="matrix(3.2 0 0 3.2 693.83 779.2)"  >
<circle style="stroke: none; stroke-width: 1; stroke-dasharray: none; stroke-linecap: butt; stroke-dashoffset: 0; stroke-linejoin: miter; stroke-miterlimit: 4; fill: rgb(255,255,255); fill-rule: nonzero; opacity: 0.04;" vector-effect="non-scaling-stroke"  cx="0" cy="0" r="3.5" />
</g>
<g transform="matrix(3.2 0 0 3.2 693.83 875.2)"  >
<circle style="stroke: none; stroke-width: 1; stroke-dasharray: none; stroke-linecap: butt; stroke-dashoffset: 0; stroke-linejoin: miter; stroke-miterlimit: 4; fill: rgb(255,255,255); fill-rule: nonzero; opacity: 0.04;" vector-effect="non-scaling-stroke"  cx="0" cy="0" r="3.5" />
</g>
<g transform="matrix(3.2 0 0 3.2 693.83 971.2)"  >
<circle style="stroke: none; stroke-width: 1; stroke-dasharray: none; stroke-linecap: butt; stroke-dashoffset: 0; stroke-linejoin: miter; stroke-miterlimit: 4; fill: rgb(255,255,255); fill-rule: nonzero; opacity: 0.16;" vector-effect="non-scaling-stroke"  cx="0" cy="0" r="3.5" />
</g>
<g transform="matrix(3.2 0 0 3.2 789.83 11.2)"  >
<circle style="stroke: none; stroke-width: 1; stroke-dasharray: none; stroke-linecap: butt; stroke-dashoffset: 0; stroke-linejoin: miter; stroke-miterlimit: 4; fill: rgb(255,255,255); fill-rule: nonzero; opacity: 0.08;" vector-effect="non-scaling-stroke"  cx="0" cy="0" r="3.5" />
</g>
<g transform="matrix(3.2 0 0 3.2 789.83 299.2)"  >
<circle style="stroke: none; stroke-width: 1; stroke-dasharray: none; stroke-linecap: butt; stroke-dashoffset: 0; stroke-linejoin: miter; stroke-miterlimit: 4; fill: rgb(255,255,255); fill-rule: nonzero; opacity: 0.08;" vector-effect="non-scaling-stroke"  cx="0" cy="0" r="3.5" />
</g>
<g transform="matrix(3.2 0 0 3.2 789.83 395.2)"  >
<circle style="stroke: none; stroke-width: 1; stroke-dasharray: none; stroke-linecap: butt; stroke-dashoffset: 0; stroke-linejoin: miter; stroke-miterlimit: 4; fill: rgb(255,255,255); fill-rule: nonzero; opacity: 0.08;" vector-effect="non-scaling-stroke"  cx="0" cy="0" r="3.5" />
</g>
<g transform="matrix(3.2 0 0 3.2 789.83 491.2)"  >
<circle style="stroke: none; stroke-width: 1; stroke-dasharray: none; stroke-linecap: butt; stroke-dashoffset: 0; stroke-linejoin: miter; stroke-miterlimit: 4; fill: rgb(255,255,255); fill-rule: nonzero; opacity: 0.08;" vector-effect="non-scaling-stroke"  cx="0" cy="0" r="3.5" />
</g>
<g transform="matrix(3.2 0 0 3.2 789.83 587.2)"  >
<circle style="stroke: none; stroke-width: 1; stroke-dasharray: none; stroke-linecap: butt; stroke-dashoffset: 0; stroke-linejoin: miter; stroke-miterlimit: 4; fill: rgb(255,255,255); fill-rule: nonzero; opacity: 0.08;" vector-effect="non-scaling-stroke"  cx="0" cy="0" r="3.5" />
</g>
<g transform="matrix(3.2 0 0 3.2 789.83 779.2)"  >
<circle style="stroke: none; stroke-width: 1; stroke-dasharray: none; stroke-linecap: butt; stroke-dashoffset: 0; stroke-linejoin: miter; stroke-miterlimit: 4; fill: rgb(255,255,255); fill-rule: nonzero; opacity: 0.1;" vector-effect="non-scaling-stroke"  cx="0" cy="0" r="3.5" />
</g>
<g transform="matrix(3.2 0 0 3.2 789.83 875.2)"  >
<circle style="stroke: none; stroke-width: 1; stroke-dasharray: none; stroke-linecap: butt; stroke-dashoffset: 0; stroke-linejoin: miter; stroke-miterlimit: 4; fill: rgb(255,255,255); fill-rule: nonzero; opacity: 0.1;" vector-effect="non-scaling-stroke"  cx="0" cy="0" r="3.5" />
</g>
<g transform="matrix(3.2 0 0 3.2 789.83 971.2)"  >
<circle style="stroke: none; stroke-width: 1; stroke-dasharray: none; stroke-linecap: butt; stroke-dashoffset: 0; stroke-linejoin: miter; stroke-miterlimit: 4; fill: rgb(255,255,255); fill-rule: nonzero; opacity: 0.1;" vector-effect="non-scaling-stroke"  cx="0" cy="0" r="3.5" />
</g>
<g transform="matrix(3.2 0 0 3.2 885.83 11.2)"  >
<circle style="stroke: none; stroke-width: 1; stroke-dasharray: none; stroke-linecap: butt; stroke-dashoffset: 0; stroke-linejoin: miter; stroke-miterlimit: 4; fill: rgb(255,255,255); fill-rule: nonzero; opacity: 0.08;" vector-effect="non-scaling-stroke"  cx="0" cy="0" r="3.5" />
</g>
<g transform="matrix(3.2 0 0 3.2 885.83 299.2)"  >
<circle style="stroke: none; stroke-width: 1; stroke-dasharray: none; stroke-linecap: butt; stroke-dashoffset: 0; stroke-linejoin: miter; stroke-miterlimit: 4; fill: rgb(255,255,255); fill-rule: nonzero; opacity: 0.08;" vector-effect="non-scaling-stroke"  cx="0" cy="0" r="3.5" />
</g>
<g transform="matrix(3.2 0 0 3.2 885.83 587.2)"  >
<circle style="stroke: none; stroke-width: 1; stroke-dasharray: none; stroke-linecap: butt; stroke-dashoffset: 0; stroke-linejoin: miter; stroke-miterlimit: 4; fill: rgb(255,255,255); fill-rule: nonzero; opacity: 0.08;" vector-effect="non-scaling-stroke"  cx="0" cy="0" r="3.5" />
</g>
<g transform="matrix(3.2 0 0 3.2 885.83 683.2)"  >
<circle style="stroke: none; stroke-width: 1; stroke-dasharray: none; stroke-linecap: butt; stroke-dashoffset: 0; stroke-linejoin: miter; stroke-miterlimit: 4; fill: rgb(255,255,255); fill-rule: nonzero; opacity: 0.08;" vector-effect="non-scaling-stroke"  cx="0" cy="0" r="3.5" />
</g>
<g transform="matrix(3.2 0 0 3.2 885.83 779.2)"  >
<circle style="stroke: none; stroke-width: 1; stroke-dasharray: none; stroke-linecap: butt; stroke-dashoffset: 0; stroke-linejoin: miter; stroke-miterlimit: 4; fill: rgb(255,255,255); fill-rule: nonzero; opacity: 0.1;" vector-effect="non-scaling-stroke"  cx="0" cy="0" r="3.5" />
</g>
<g transform="matrix(3.2 0 0 3.2 885.83 875.2)"  >
<circle style="stroke: none; stroke-width: 1; stroke-dasharray: none; stroke-linecap: butt; stroke-dashoffset: 0; stroke-linejoin: miter; stroke-miterlimit: 4; fill: rgb(255,255,255); fill-rule: nonzero; opacity: 0.1;" vector-effect="non-scaling-stroke"  cx="0" cy="0" r="3.5" />
</g>
<g transform="matrix(3.2 0 0 3.2 885.83 971.2)"  >
<circle style="stroke: none; stroke-width: 1; stroke-dasharray: none; stroke-linecap: butt; stroke-dashoffset: 0; stroke-linejoin: miter; stroke-miterlimit: 4; fill: rgb(255,255,255); fill-rule: nonzero; opacity: 0.1;" vector-effect="non-scaling-stroke"  cx="0" cy="0" r="3.5" />
</g>
<g transform="matrix(3.2 0 0 3.2 885.83 1067.2)"  >
<circle style="stroke: none; stroke-width: 1; stroke-dasharray: none; stroke-linecap: butt; stroke-dashoffset: 0; stroke-linejoin: miter; stroke-miterlimit: 4; fill: rgb(255,255,255); fill-rule: nonzero; opacity: 0.1;" vector-effect="non-scaling-stroke"  cx="0" cy="0" r="3.5" />
</g>
<g transform="matrix(3.2 0 0 3.2 981.83 11.2)"  >
<circle style="stroke: none; stroke-width: 1; stroke-dasharray: none; stroke-linecap: butt; stroke-dashoffset: 0; stroke-linejoin: miter; stroke-miterlimit: 4; fill: rgb(255,255,255); fill-rule: nonzero; opacity: 0.08;" vector-effect="non-scaling-stroke"  cx="0" cy="0" r="3.5" />
</g>
<g transform="matrix(3.2 0 0 3.2 981.83 299.2)"  >
<circle style="stroke: none; stroke-width: 1; stroke-dasharray: none; stroke-linecap: butt; stroke-dashoffset: 0; stroke-linejoin: miter; stroke-miterlimit: 4; fill: rgb(255,255,255); fill-rule: nonzero; opacity: 0.08;" vector-effect="non-scaling-stroke"  cx="0" cy="0" r="3.5" />
</g>
<g transform="matrix(3.2 0 0 3.2 981.83 587.2)"  >
<circle style="stroke: none; stroke-width: 1; stroke-dasharray: none; stroke-linecap: butt; stroke-dashoffset: 0; stroke-linejoin: miter; stroke-miterlimit: 4; fill: rgb(255,255,255); fill-rule: nonzero; opacity: 0.1;" vector-effect="non-scaling-stroke"  cx="0" cy="0" r="3.5" />
</g>
<g transform="matrix(3.2 0 0 3.2 981.83 683.2)"  >
<circle style="stroke: none; stroke-width: 1; stroke-dasharray: none; stroke-linecap: butt; stroke-dashoffset: 0; stroke-linejoin: miter; stroke-miterlimit: 4; fill: rgb(255,255,255); fill-rule: nonzero; opacity: 0.08;" vector-effect="non-scaling-stroke"  cx="0" cy="0" r="3.5" />
</g>
<g transform="matrix(3.2 0 0 3.2 981.83 875.2)"  >
<circle style="stroke: none; stroke-width: 1; stroke-dasharray: none; stroke-linecap: butt; stroke-dashoffset: 0; stroke-linejoin: miter; stroke-miterlimit: 4; fill: rgb(255,255,255); fill-rule: nonzero; opacity: 0.1;" vector-effect="non-scaling-stroke"  cx="0" cy="0" r="3.5" />
</g>
<g transform="matrix(3.2 0 0 3.2 981.83 971.2)"  >
<circle style="stroke: none; stroke-width: 1; stroke-dasharray: none; stroke-linecap: butt; stroke-dashoffset: 0; stroke-linejoin: miter; stroke-miterlimit: 4; fill: rgb(255,255,255); fill-rule: nonzero; opacity: 0.1;" vector-effect="non-scaling-stroke"  cx="0" cy="0" r="3.5" />
</g>
<g transform="matrix(3.2 0 0 3.2 455.12 771.58)"  >
</g>
</svg>